%TF.GenerationSoftware,KiCad,Pcbnew,10.0.3*%
%TF.CreationDate,2026-08-03T18:54:15-07:00*%
%TF.ProjectId,MakoPad Mk1,4d616b6f-5061-4642-904d-6b312e6b6963,rev?*%
%TF.SameCoordinates,Original*%
%TF.FileFunction,Copper,L2,Bot*%
%TF.FilePolarity,Positive*%
%FSLAX46Y46*%
G04 Gerber Fmt 4.6, Leading zero omitted, Abs format (unit mm)*
G04 Created by KiCad (PCBNEW 10.0.3) date 2026-08-03 18:54:15*
%MOMM*%
%LPD*%
G01*
G04 APERTURE LIST*
%TA.AperFunction,SMDPad,CuDef*%
%ADD10R,2.550000X2.500000*%
%TD*%
%TA.AperFunction,ComponentPad*%
%ADD11C,2.286000*%
%TD*%
%TA.AperFunction,ComponentPad*%
%ADD12O,3.200000X1.900000*%
%TD*%
%TA.AperFunction,ComponentPad*%
%ADD13C,3.600000*%
%TD*%
%TA.AperFunction,ComponentPad*%
%ADD14C,1.500000*%
%TD*%
%TA.AperFunction,ComponentPad*%
%ADD15R,1.752600X1.752600*%
%TD*%
%TA.AperFunction,ComponentPad*%
%ADD16C,1.752600*%
%TD*%
%TA.AperFunction,ComponentPad*%
%ADD17R,2.000000X2.000000*%
%TD*%
%TA.AperFunction,ComponentPad*%
%ADD18C,2.000000*%
%TD*%
%TA.AperFunction,ComponentPad*%
%ADD19R,3.200000X2.000000*%
%TD*%
%TA.AperFunction,ViaPad*%
%ADD20C,0.600000*%
%TD*%
%TA.AperFunction,Conductor*%
%ADD21C,0.200000*%
%TD*%
G04 APERTURE END LIST*
D10*
%TO.P,K1,1,1_1*%
%TO.N,/ROW0*%
X137475000Y-111280000D03*
D11*
X139955000Y-103660000D03*
X139955000Y-108740000D03*
%TO.P,K1,2,2_2*%
%TO.N,/COL0*%
X146305000Y-101120000D03*
X146305000Y-111280000D03*
D10*
X151325000Y-108740000D03*
%TD*%
%TO.P,K3,2,2_2*%
%TO.N,/COL2*%
X189425000Y-108740000D03*
D11*
X184405000Y-111280000D03*
X184405000Y-101120000D03*
%TO.P,K3,1,1_1*%
%TO.N,/ROW0*%
X178055000Y-108740000D03*
X178055000Y-103660000D03*
D10*
X175575000Y-111280000D03*
%TD*%
%TO.P,K5,2,2_2*%
%TO.N,/COL1*%
X170375000Y-127790000D03*
D11*
X165355000Y-130330000D03*
X165355000Y-120170000D03*
%TO.P,K5,1,1_1*%
%TO.N,/ROW1*%
X159005000Y-127790000D03*
X159005000Y-122710000D03*
D10*
X156525000Y-130330000D03*
%TD*%
%TO.P,K6,2,2_2*%
%TO.N,/COL2*%
X189425000Y-127790000D03*
D11*
X184405000Y-130330000D03*
X184405000Y-120170000D03*
%TO.P,K6,1,1_1*%
%TO.N,/ROW1*%
X178055000Y-127790000D03*
X178055000Y-122710000D03*
D10*
X175575000Y-130330000D03*
%TD*%
%TO.P,K4,2,2_2*%
%TO.N,/COL0*%
X151325000Y-127790000D03*
D11*
X146305000Y-130330000D03*
X146305000Y-120170000D03*
%TO.P,K4,1,1_1*%
%TO.N,/ROW1*%
X139955000Y-127790000D03*
X139955000Y-122710000D03*
D10*
X137475000Y-130330000D03*
%TD*%
%TO.P,K2,2,2_2*%
%TO.N,/COL1*%
X170375000Y-108740000D03*
D11*
X165355000Y-111280000D03*
X165355000Y-101120000D03*
%TO.P,K2,1,1_1*%
%TO.N,/ROW0*%
X159005000Y-108740000D03*
X159005000Y-103660000D03*
D10*
X156525000Y-111280000D03*
%TD*%
D12*
%TO.P,SW2,1,1_1*%
%TO.N,/SW_GND*%
X185850000Y-82738000D03*
X198350000Y-82738000D03*
%TO.P,SW2,2,2_2*%
%TO.N,/SW2*%
X185850000Y-87738000D03*
X198350000Y-87738000D03*
%TD*%
D13*
%TO.P,U1,0*%
%TO.N,N/C*%
X134105000Y-92243000D03*
X179105000Y-92243000D03*
X134105000Y-63243000D03*
X179105000Y-63243000D03*
D14*
%TO.P,U1,1,VCC_1*%
%TO.N,/VCC *%
X132875000Y-89193000D03*
%TO.P,U1,2,GND_2*%
%TO.N,/SW_GND*%
X132875000Y-86653000D03*
%TO.P,U1,3,SCLK_3*%
%TO.N,/SCLK*%
X132875000Y-84113000D03*
%TO.P,U1,4,MOSI_4*%
%TO.N,/MOSI*%
X132875000Y-81573000D03*
%TO.P,U1,5,MISO_5*%
%TO.N,unconnected-(U1-MISO-Pad5)*%
X132875000Y-79033000D03*
%TO.P,U1,6,CS_6*%
%TO.N,/CS*%
X132875000Y-76493000D03*
%TO.P,U1,7,RES_7*%
%TO.N,/RES*%
X132875000Y-73953000D03*
%TO.P,U1,8,DC_8*%
%TO.N,/DC*%
X132875000Y-71413000D03*
%TO.P,U1,9,BLK_9*%
%TO.N,/VCC *%
X132875000Y-68873000D03*
%TO.P,U1,10,SDCS_10*%
%TO.N,unconnected-(U1-SDCS-Pad10)*%
X132875000Y-66333000D03*
%TD*%
D15*
%TO.P,MC1,1,D+_1*%
%TO.N,unconnected-(MC1-D+-Pad1)*%
X102080000Y-63638000D03*
D16*
%TO.P,MC1,2,D0_2*%
%TO.N,/RE1_S1*%
X102080000Y-66178000D03*
%TO.P,MC1,3,D1_3*%
%TO.N,N/C*%
X102080000Y-68718000D03*
%TO.P,MC1,4,GND_4*%
%TO.N,/RE1_S2*%
X102080000Y-71258000D03*
%TO.P,MC1,5,GND_5*%
%TO.N,/RE1_C*%
X102080000Y-73798000D03*
%TO.P,MC1,6,D2_6*%
%TO.N,/ROW0*%
X102080000Y-76338000D03*
%TO.P,MC1,7,D3_7*%
%TO.N,/ROW1*%
X102080000Y-78878000D03*
%TO.P,MC1,8,D4_8*%
%TO.N,/COL0*%
X102080000Y-81418000D03*
%TO.P,MC1,9,D5_9*%
%TO.N,/COL1*%
X102080000Y-83958000D03*
%TO.P,MC1,10,D6_10*%
%TO.N,/COL2*%
X102080000Y-86498000D03*
%TO.P,MC1,11,D7_11*%
%TO.N,/CS*%
X102080000Y-89038000D03*
%TO.P,MC1,12,D8_12*%
%TO.N,/RES*%
X102080000Y-91578000D03*
%TO.P,MC1,13,D9_13*%
%TO.N,/DC*%
X102080000Y-94118000D03*
X117320000Y-63638000D03*
%TO.N,/MOSI*%
X117320000Y-91578000D03*
%TO.N,N/C*%
X117320000Y-94118000D03*
%TO.P,MC1,14,D-_14*%
%TO.N,unconnected-(MC1-D--Pad14)*%
X117320000Y-66178000D03*
X117320000Y-89038000D03*
%TO.P,MC1,15,RAW_15*%
%TO.N,/SW_GND*%
X117320000Y-68718000D03*
%TO.N,unconnected-(MC1-RAW-Pad15)*%
X117320000Y-86498000D03*
%TO.P,MC1,16,GND_16*%
%TO.N,N/C*%
X117320000Y-71258000D03*
%TO.N,/RE1_B*%
X117320000Y-83958000D03*
%TO.P,MC1,17,RESET_17*%
%TO.N,/VCC *%
X117320000Y-73798000D03*
%TO.P,MC1,18,3.3v_18*%
%TO.N,/SW1*%
X117320000Y-76338000D03*
%TO.P,MC1,19,A3/29_19*%
%TO.N,/SW2*%
X117320000Y-78878000D03*
%TO.P,MC1,20,A2/28_20*%
%TO.N,/RE1_A*%
X117320000Y-81418000D03*
%TD*%
D12*
%TO.P,SW1,1,1_1*%
%TO.N,/SW_GND*%
X185850000Y-67688000D03*
X198350000Y-67688000D03*
%TO.P,SW1,2,2_2*%
%TO.N,/SW1*%
X185850000Y-72688000D03*
X198350000Y-72688000D03*
%TD*%
D17*
%TO.P,RE1,A,A_A*%
%TO.N,/RE1_A*%
X101300000Y-107338000D03*
D18*
%TO.P,RE1,B,B_B*%
%TO.N,/RE1_B*%
X101300000Y-112338000D03*
%TO.P,RE1,C,C_C*%
%TO.N,/RE1_C*%
X101300000Y-109838000D03*
D19*
%TO.P,RE1,MP*%
%TO.N,N/C*%
X108800000Y-104238000D03*
X108800000Y-115438000D03*
D18*
%TO.P,RE1,S1,S1_S1*%
%TO.N,/RE1_S1*%
X115800000Y-112338000D03*
%TO.P,RE1,S2,S2_S2*%
%TO.N,/RE1_S2*%
X115800000Y-107338000D03*
%TD*%
D20*
%TO.N,/COL0*%
X151325000Y-108740000D03*
X151325000Y-127790000D03*
%TO.N,/ROW0*%
X122600000Y-110600000D03*
X137475000Y-98700000D03*
X156525000Y-111280000D03*
X137475000Y-111280000D03*
X156525000Y-98700000D03*
X175575000Y-98700000D03*
X156525000Y-98700000D03*
X175575000Y-111280000D03*
%TO.N,/ROW1*%
X137475000Y-130330000D03*
X175575000Y-117750000D03*
X156525000Y-130330000D03*
X137475000Y-117750000D03*
X156525000Y-117750000D03*
X122550000Y-113200000D03*
X175575000Y-130330000D03*
%TO.N,/COL1*%
X170375000Y-127790000D03*
X170375000Y-108740000D03*
%TO.N,/COL2*%
X189425000Y-127790000D03*
X189425000Y-108740000D03*
%TD*%
%TO.N,/RE1_S2*%
D21*
X106900000Y-72000000D02*
X106158000Y-71258000D01*
X106900000Y-79490947D02*
X106900000Y-72000000D01*
X108900000Y-98950000D02*
X106900000Y-96950000D01*
X106900004Y-79490951D02*
X106900000Y-79490947D01*
X106900000Y-79822324D02*
X106900004Y-79490951D01*
X113812000Y-98950000D02*
X108900000Y-98950000D01*
X106900000Y-96950000D02*
X106900000Y-79822324D01*
X115800000Y-100938000D02*
X113812000Y-98950000D01*
X115800000Y-107338000D02*
X115800000Y-100938000D01*
X106158000Y-71258000D02*
X102080000Y-71258000D01*
%TO.N,/ROW0*%
X120200000Y-110600000D02*
X122600000Y-110600000D01*
X119100000Y-111700000D02*
X120200000Y-110600000D01*
X119100000Y-117884314D02*
X119100000Y-111700000D01*
X118634314Y-118350000D02*
X119100000Y-117884314D01*
X100350000Y-118350000D02*
X118634314Y-118350000D01*
X97450000Y-115450000D02*
X100350000Y-118350000D01*
X104900000Y-98250000D02*
X100015686Y-98250000D01*
X106100000Y-97050000D02*
X104900000Y-98250000D01*
X97450000Y-100815686D02*
X97450000Y-115450000D01*
X106100000Y-77338000D02*
X106100000Y-97050000D01*
X100015686Y-98250000D02*
X97450000Y-100815686D01*
X105100000Y-76338000D02*
X106100000Y-77338000D01*
X102080000Y-76338000D02*
X105100000Y-76338000D01*
%TO.N,/RE1_C*%
X105760000Y-73798000D02*
X102080000Y-73798000D01*
X106500000Y-74538000D02*
X105760000Y-73798000D01*
X106500002Y-79656633D02*
X106500000Y-79656631D01*
X106500000Y-79822319D02*
X106500002Y-79656633D01*
X106499998Y-97181376D02*
X106500000Y-97181371D01*
X106500000Y-96850002D02*
X106500000Y-79822319D01*
X106500000Y-97181378D02*
X106499998Y-97181376D01*
X106500000Y-79656631D02*
X106500000Y-74538000D01*
X106500000Y-97181371D02*
X106500002Y-96850004D01*
X106500002Y-96850004D02*
X106500000Y-96850002D01*
X104050000Y-109838000D02*
X106500000Y-107388000D01*
X106500000Y-107388000D02*
X106500000Y-97181378D01*
X101300000Y-109838000D02*
X104050000Y-109838000D01*
%TO.N,/RE1_S1*%
X117100000Y-111038000D02*
X115800000Y-112338000D01*
X117100000Y-101600000D02*
X117100000Y-111038000D01*
X107300000Y-96784314D02*
X109053686Y-98538000D01*
X107300006Y-66900006D02*
X107300006Y-79325271D01*
X106578000Y-66178000D02*
X107300006Y-66900006D01*
X114038000Y-98538000D02*
X117100000Y-101600000D01*
X107300000Y-79822328D02*
X107300000Y-96784314D01*
X107300006Y-79325271D02*
X107300000Y-79822328D01*
X109053686Y-98538000D02*
X114038000Y-98538000D01*
X102080000Y-66178000D02*
X106578000Y-66178000D01*
%TO.N,/SW2*%
X175700000Y-81988000D02*
X175700000Y-85738000D01*
X177700000Y-87738000D02*
X185850000Y-87738000D01*
X130235000Y-80523000D02*
X174235000Y-80523000D01*
X174235000Y-80523000D02*
X175700000Y-81988000D01*
X175700000Y-85738000D02*
X177700000Y-87738000D01*
X128600000Y-78888000D02*
X130235000Y-80523000D01*
X117450000Y-78888000D02*
X128600000Y-78888000D01*
%TO.N,/VCC *%
X119030000Y-72088000D02*
X126692500Y-72088000D01*
X126692500Y-72088000D02*
X129907500Y-68873000D01*
X132875000Y-68873000D02*
X129907500Y-68873000D01*
X117320000Y-73798000D02*
X119030000Y-72088000D01*
%TO.N,/SCLK*%
X117320000Y-86498000D02*
X127440000Y-86498000D01*
X129825000Y-84113000D02*
X132875000Y-84113000D01*
X127440000Y-86498000D02*
X129825000Y-84113000D01*
%TO.N,/MOSI*%
X114338000Y-91588000D02*
X117310000Y-91588000D01*
X113350000Y-90600000D02*
X114338000Y-91588000D01*
X113350000Y-84300000D02*
X113350000Y-90600000D01*
X115012000Y-82638000D02*
X113350000Y-84300000D01*
X130215000Y-81573000D02*
X129150000Y-82638000D01*
X117310000Y-91588000D02*
X117320000Y-91578000D01*
X129150000Y-82638000D02*
X115012000Y-82638000D01*
X132875000Y-81573000D02*
X130215000Y-81573000D01*
%TO.N,/ROW0*%
X175575000Y-98700000D02*
X156525000Y-98700000D01*
X137475000Y-98700000D02*
X156525000Y-98700000D01*
%TO.N,/ROW1*%
X105700000Y-96850000D02*
X104700000Y-97850000D01*
X105700000Y-79988000D02*
X105700000Y-96850000D01*
X118800000Y-118750000D02*
X119500000Y-118050000D01*
X99850000Y-97850000D02*
X97050000Y-100650000D01*
X120200000Y-113200000D02*
X122550000Y-113200000D01*
X119500000Y-118050000D02*
X119500000Y-113900000D01*
X119500000Y-113900000D02*
X120200000Y-113200000D01*
X104590000Y-78878000D02*
X105700000Y-79988000D01*
X97050000Y-115650000D02*
X100150000Y-118750000D01*
X104700000Y-97850000D02*
X99850000Y-97850000D01*
X156525000Y-117750000D02*
X137475000Y-117750000D01*
X97050000Y-100650000D02*
X97050000Y-115650000D01*
X102080000Y-78878000D02*
X104590000Y-78878000D01*
X175575000Y-117750000D02*
X156525000Y-117750000D01*
X100150000Y-118750000D02*
X118800000Y-118750000D01*
%TO.N,/SW1*%
X165350000Y-75188000D02*
X167850000Y-72688000D01*
X167850000Y-72688000D02*
X185850000Y-72688000D01*
X129300000Y-75188000D02*
X165350000Y-75188000D01*
X117320000Y-76338000D02*
X128150000Y-76338000D01*
X128150000Y-76338000D02*
X129300000Y-75188000D01*
%TD*%
M02*
