M48
; DRILL file KiCad 10.0.3 date 2026-07-26T15:44:57
; FORMAT={-:-/ absolute / metric / decimal}
; #@! TF.CreationDate,2026-07-26T15:44:57-07:00
; #@! TF.GenerationSoftware,Kicad,Pcbnew,10.0.3
; #@! TF.FileFunction,Plated,1,2,PTH
FMAT,2
METRIC
; #@! TA.AperFunction,Plated,PTH,ViaDrill
T1C0.300
; #@! TA.AperFunction,Plated,PTH,ComponentDrill
T2C0.900
; #@! TA.AperFunction,Plated,PTH,ComponentDrill
T3C1.000
; #@! TA.AperFunction,Plated,PTH,ComponentDrill
T4C1.092
; #@! TA.AperFunction,Plated,PTH,ComponentDrill
T5C1.300
; #@! TA.AperFunction,Plated,PTH,ComponentDrill
T6C1.500
; #@! TA.AperFunction,Plated,PTH,ComponentDrill
T7C2.000
%
G90
G05
T1
X127.4Y-118.788
X133.75Y-105.588
X141.2Y-118.188
X141.2Y-129.188
X160.25Y-118.188
X160.25Y-128.988
T2
X132.875Y-66.333
X132.875Y-68.873
X132.875Y-71.413
X132.875Y-73.953
X132.875Y-76.493
X132.875Y-79.033
X132.875Y-81.573
X132.875Y-84.113
X132.875Y-86.653
X132.875Y-89.193
T3
X101.3Y-107.338
X101.3Y-109.838
X101.3Y-112.338
X115.8Y-107.338
X115.8Y-112.338
T4
X102.08Y-63.638
X102.08Y-66.178
X102.08Y-68.718
X102.08Y-71.258
X102.08Y-73.798
X102.08Y-76.338
X102.08Y-78.878
X102.08Y-81.418
X102.08Y-83.958
X102.08Y-86.498
X102.08Y-89.038
X102.08Y-91.578
X102.08Y-94.118
X117.32Y-63.638
X117.32Y-66.178
X117.32Y-68.718
X117.32Y-71.258
X117.32Y-73.798
X117.32Y-76.338
X117.32Y-78.878
X117.32Y-81.418
X117.32Y-83.958
X117.32Y-86.498
X117.32Y-89.038
X117.32Y-91.578
X117.32Y-94.118
T5
X185.85Y-67.688
X185.85Y-72.688
X185.85Y-82.738
X185.85Y-87.738
X198.35Y-67.688
X198.35Y-72.688
X198.35Y-82.738
X198.35Y-87.738
T7
X134.105Y-63.243
X134.105Y-92.243
X179.105Y-63.243
X179.105Y-92.243
T6
G00X108.15Y-104.238
M15
G01X109.45Y-104.238
M16
G05
G00X108.15Y-115.438
M15
G01X109.45Y-115.438
M16
G05
M30
