%TF.GenerationSoftware,KiCad,Pcbnew,10.0.3*%
%TF.CreationDate,2026-07-26T15:44:52-07:00*%
%TF.ProjectId,MakoPad Mk1,4d616b6f-5061-4642-904d-6b312e6b6963,rev?*%
%TF.SameCoordinates,Original*%
%TF.FileFunction,Soldermask,Top*%
%TF.FilePolarity,Negative*%
%FSLAX46Y46*%
G04 Gerber Fmt 4.6, Leading zero omitted, Abs format (unit mm)*
G04 Created by KiCad (PCBNEW 10.0.3) date 2026-07-26 15:44:52*
%MOMM*%
%LPD*%
G01*
G04 APERTURE LIST*
G04 Aperture macros list*
%AMRoundRect*
0 Rectangle with rounded corners*
0 $1 Rounding radius*
0 $2 $3 $4 $5 $6 $7 $8 $9 X,Y pos of 4 corners*
0 Add a 4 corners polygon primitive as box body*
4,1,4,$2,$3,$4,$5,$6,$7,$8,$9,$2,$3,0*
0 Add four circle primitives for the rounded corners*
1,1,$1+$1,$2,$3*
1,1,$1+$1,$4,$5*
1,1,$1+$1,$6,$7*
1,1,$1+$1,$8,$9*
0 Add four rect primitives between the rounded corners*
20,1,$1+$1,$2,$3,$4,$5,0*
20,1,$1+$1,$4,$5,$6,$7,0*
20,1,$1+$1,$6,$7,$8,$9,0*
20,1,$1+$1,$8,$9,$2,$3,0*%
G04 Aperture macros list end*
%ADD10C,3.000000*%
%ADD11RoundRect,0.102000X-1.275000X-1.250000X1.275000X-1.250000X1.275000X1.250000X-1.275000X1.250000X0*%
%ADD12O,3.200000X1.900000*%
%ADD13C,2.700000*%
%ADD14C,3.600000*%
%ADD15C,1.500000*%
%ADD16RoundRect,0.225000X0.225000X0.375000X-0.225000X0.375000X-0.225000X-0.375000X0.225000X-0.375000X0*%
%ADD17R,1.752600X1.752600*%
%ADD18C,1.752600*%
%ADD19R,2.000000X2.000000*%
%ADD20C,2.000000*%
%ADD21R,3.200000X2.000000*%
G04 APERTURE END LIST*
D10*
%TO.C,K1*%
X139675000Y-105468000D03*
X146025000Y-108008000D03*
D11*
X136125000Y-105468000D03*
X149575000Y-108008000D03*
%TD*%
D12*
%TO.C,SW2*%
X185850000Y-82738000D03*
X198350000Y-82738000D03*
X185850000Y-87738000D03*
X198350000Y-87738000D03*
%TD*%
D13*
%TO.C,REF\u002A\u002A*%
X97300000Y-131900000D03*
%TD*%
D10*
%TO.C,K2*%
X158725000Y-105468000D03*
X165075000Y-108008000D03*
D11*
X155175000Y-105468000D03*
X168625000Y-108008000D03*
%TD*%
D13*
%TO.C,REF\u002A\u002A*%
X200550000Y-131900000D03*
%TD*%
D14*
%TO.C,U1*%
X134105000Y-92243000D03*
X179105000Y-92243000D03*
X134105000Y-63243000D03*
X179105000Y-63243000D03*
D15*
X132875000Y-89193000D03*
X132875000Y-86653000D03*
X132875000Y-84113000D03*
X132875000Y-81573000D03*
X132875000Y-79033000D03*
X132875000Y-76493000D03*
X132875000Y-73953000D03*
X132875000Y-71413000D03*
X132875000Y-68873000D03*
X132875000Y-66333000D03*
%TD*%
D10*
%TO.C,K5*%
X158725000Y-123168000D03*
X165075000Y-125708000D03*
D11*
X155175000Y-123168000D03*
X168625000Y-125708000D03*
%TD*%
D10*
%TO.C,K6*%
X177775000Y-123168000D03*
X184125000Y-125708000D03*
D11*
X174225000Y-123168000D03*
X187675000Y-125708000D03*
%TD*%
D13*
%TO.C,REF\u002A\u002A*%
X200850000Y-60050000D03*
%TD*%
D10*
%TO.C,K4*%
X139675000Y-123168000D03*
X146025000Y-125708000D03*
D11*
X136125000Y-123168000D03*
X149575000Y-125708000D03*
%TD*%
D16*
%TO.C,D1*%
X144500000Y-113850000D03*
X141200000Y-113850000D03*
%TD*%
D17*
%TO.C,MC1*%
X102080000Y-63638000D03*
D18*
X102080000Y-66178000D03*
X102080000Y-68718000D03*
X102080000Y-71258000D03*
X102080000Y-73798000D03*
X102080000Y-76338000D03*
X102080000Y-78878000D03*
X102080000Y-81418000D03*
X102080000Y-83958000D03*
X102080000Y-86498000D03*
X102080000Y-89038000D03*
X102080000Y-91578000D03*
X102080000Y-94118000D03*
X117320000Y-63638000D03*
X117320000Y-91578000D03*
X117320000Y-94118000D03*
X117320000Y-66178000D03*
X117320000Y-89038000D03*
X117320000Y-68718000D03*
X117320000Y-86498000D03*
X117320000Y-71258000D03*
X117320000Y-83958000D03*
X117320000Y-73798000D03*
X117320000Y-76338000D03*
X117320000Y-78878000D03*
X117320000Y-81418000D03*
%TD*%
D16*
%TO.C,D3*%
X182600000Y-113850000D03*
X179300000Y-113850000D03*
%TD*%
D12*
%TO.C,SW1*%
X185850000Y-67688000D03*
X198350000Y-67688000D03*
X185850000Y-72688000D03*
X198350000Y-72688000D03*
%TD*%
D16*
%TO.C,D2*%
X163550000Y-113850000D03*
X160250000Y-113850000D03*
%TD*%
%TO.C,D6*%
X182600000Y-131550000D03*
X179300000Y-131550000D03*
%TD*%
D19*
%TO.C,RE1*%
X101300000Y-107338000D03*
D20*
X101300000Y-112338000D03*
X101300000Y-109838000D03*
D21*
X108800000Y-104238000D03*
X108800000Y-115438000D03*
D20*
X115800000Y-112338000D03*
X115800000Y-107338000D03*
%TD*%
D10*
%TO.C,K3*%
X177775000Y-105468000D03*
X184125000Y-108008000D03*
D11*
X174225000Y-105468000D03*
X187675000Y-108008000D03*
%TD*%
D16*
%TO.C,D5*%
X163550000Y-131550000D03*
X160250000Y-131550000D03*
%TD*%
%TO.C,D4*%
X144500000Y-131550000D03*
X141200000Y-131550000D03*
%TD*%
D13*
%TO.C,REF\u002A\u002A*%
X97300000Y-60350000D03*
%TD*%
M02*
