%TF.GenerationSoftware,KiCad,Pcbnew,10.0.3*%
%TF.CreationDate,2026-08-03T18:54:15-07:00*%
%TF.ProjectId,MakoPad Mk1,4d616b6f-5061-4642-904d-6b312e6b6963,rev?*%
%TF.SameCoordinates,Original*%
%TF.FileFunction,Copper,L1,Top*%
%TF.FilePolarity,Positive*%
%FSLAX46Y46*%
G04 Gerber Fmt 4.6, Leading zero omitted, Abs format (unit mm)*
G04 Created by KiCad (PCBNEW 10.0.3) date 2026-08-03 18:54:15*
%MOMM*%
%LPD*%
G01*
G04 APERTURE LIST*
G04 Aperture macros list*
%AMRoundRect*
0 Rectangle with rounded corners*
0 $1 Rounding radius*
0 $2 $3 $4 $5 $6 $7 $8 $9 X,Y pos of 4 corners*
0 Add a 4 corners polygon primitive as box body*
4,1,4,$2,$3,$4,$5,$6,$7,$8,$9,$2,$3,0*
0 Add four circle primitives for the rounded corners*
1,1,$1+$1,$2,$3*
1,1,$1+$1,$4,$5*
1,1,$1+$1,$6,$7*
1,1,$1+$1,$8,$9*
0 Add four rect primitives between the rounded corners*
20,1,$1+$1,$2,$3,$4,$5,0*
20,1,$1+$1,$4,$5,$6,$7,0*
20,1,$1+$1,$6,$7,$8,$9,0*
20,1,$1+$1,$8,$9,$2,$3,0*%
G04 Aperture macros list end*
%TA.AperFunction,SMDPad,CuDef*%
%ADD10R,2.550000X2.500000*%
%TD*%
%TA.AperFunction,ComponentPad*%
%ADD11C,2.286000*%
%TD*%
%TA.AperFunction,ComponentPad*%
%ADD12O,3.200000X1.900000*%
%TD*%
%TA.AperFunction,ComponentPad*%
%ADD13C,3.600000*%
%TD*%
%TA.AperFunction,ComponentPad*%
%ADD14C,1.500000*%
%TD*%
%TA.AperFunction,SMDPad,CuDef*%
%ADD15RoundRect,0.225000X-0.225000X-0.375000X0.225000X-0.375000X0.225000X0.375000X-0.225000X0.375000X0*%
%TD*%
%TA.AperFunction,ComponentPad*%
%ADD16R,1.752600X1.752600*%
%TD*%
%TA.AperFunction,ComponentPad*%
%ADD17C,1.752600*%
%TD*%
%TA.AperFunction,ComponentPad*%
%ADD18R,2.000000X2.000000*%
%TD*%
%TA.AperFunction,ComponentPad*%
%ADD19C,2.000000*%
%TD*%
%TA.AperFunction,ComponentPad*%
%ADD20R,3.200000X2.000000*%
%TD*%
%TA.AperFunction,ViaPad*%
%ADD21C,0.600000*%
%TD*%
%TA.AperFunction,Conductor*%
%ADD22C,0.200000*%
%TD*%
G04 APERTURE END LIST*
D10*
%TO.P,K1,1,1_1*%
%TO.N,/ROW0*%
X137475000Y-101120000D03*
D11*
X139955000Y-103660000D03*
X139955000Y-108740000D03*
%TO.P,K1,2,2_2*%
%TO.N,/COL0*%
X146305000Y-101120000D03*
X146305000Y-111280000D03*
D10*
X151325000Y-103660000D03*
%TD*%
%TO.P,K3,2,2_2*%
%TO.N,/COL2*%
X189425000Y-103660000D03*
D11*
X184405000Y-111280000D03*
X184405000Y-101120000D03*
%TO.P,K3,1,1_1*%
%TO.N,/ROW0*%
X178055000Y-108740000D03*
X178055000Y-103660000D03*
D10*
X175575000Y-101120000D03*
%TD*%
%TO.P,K5,2,2_2*%
%TO.N,/COL1*%
X170375000Y-122710000D03*
D11*
X165355000Y-130330000D03*
X165355000Y-120170000D03*
%TO.P,K5,1,1_1*%
%TO.N,/ROW1*%
X159005000Y-127790000D03*
X159005000Y-122710000D03*
D10*
X156525000Y-120170000D03*
%TD*%
%TO.P,K6,2,2_2*%
%TO.N,/COL2*%
X189425000Y-122710000D03*
D11*
X184405000Y-130330000D03*
X184405000Y-120170000D03*
%TO.P,K6,1,1_1*%
%TO.N,/ROW1*%
X178055000Y-127790000D03*
X178055000Y-122710000D03*
D10*
X175575000Y-120170000D03*
%TD*%
%TO.P,K4,2,2_2*%
%TO.N,/COL0*%
X151325000Y-122710000D03*
D11*
X146305000Y-130330000D03*
X146305000Y-120170000D03*
%TO.P,K4,1,1_1*%
%TO.N,/ROW1*%
X139955000Y-127790000D03*
X139955000Y-122710000D03*
D10*
X137475000Y-120170000D03*
%TD*%
%TO.P,K2,2,2_2*%
%TO.N,/COL1*%
X170375000Y-103660000D03*
D11*
X165355000Y-111280000D03*
X165355000Y-101120000D03*
%TO.P,K2,1,1_1*%
%TO.N,/ROW0*%
X159005000Y-108740000D03*
X159005000Y-103660000D03*
D10*
X156525000Y-101120000D03*
%TD*%
D12*
%TO.P,SW2,1,1_1*%
%TO.N,/SW_GND*%
X185850000Y-82738000D03*
X198350000Y-82738000D03*
%TO.P,SW2,2,2_2*%
%TO.N,/SW2*%
X185850000Y-87738000D03*
X198350000Y-87738000D03*
%TD*%
D13*
%TO.P,U1,0*%
%TO.N,N/C*%
X134105000Y-92243000D03*
X179105000Y-92243000D03*
X134105000Y-63243000D03*
X179105000Y-63243000D03*
D14*
%TO.P,U1,1,VCC_1*%
%TO.N,/VCC *%
X132875000Y-89193000D03*
%TO.P,U1,2,GND_2*%
%TO.N,/SW_GND*%
X132875000Y-86653000D03*
%TO.P,U1,3,SCLK_3*%
%TO.N,/SCLK*%
X132875000Y-84113000D03*
%TO.P,U1,4,MOSI_4*%
%TO.N,/MOSI*%
X132875000Y-81573000D03*
%TO.P,U1,5,MISO_5*%
%TO.N,unconnected-(U1-MISO-Pad5)*%
X132875000Y-79033000D03*
%TO.P,U1,6,CS_6*%
%TO.N,/CS*%
X132875000Y-76493000D03*
%TO.P,U1,7,RES_7*%
%TO.N,/RES*%
X132875000Y-73953000D03*
%TO.P,U1,8,DC_8*%
%TO.N,/DC*%
X132875000Y-71413000D03*
%TO.P,U1,9,BLK_9*%
%TO.N,/VCC *%
X132875000Y-68873000D03*
%TO.P,U1,10,SDCS_10*%
%TO.N,unconnected-(U1-SDCS-Pad10)*%
X132875000Y-66333000D03*
%TD*%
D15*
%TO.P,D1,1,K_1*%
%TO.N,/ROW0*%
X124625000Y-110600000D03*
%TO.P,D1,2,A_2*%
X127925000Y-110600000D03*
%TD*%
D16*
%TO.P,MC1,1,D+_1*%
%TO.N,unconnected-(MC1-D+-Pad1)*%
X102080000Y-63638000D03*
D17*
%TO.P,MC1,2,D0_2*%
%TO.N,/RE1_S1*%
X102080000Y-66178000D03*
%TO.P,MC1,3,D1_3*%
%TO.N,N/C*%
X102080000Y-68718000D03*
%TO.P,MC1,4,GND_4*%
%TO.N,/RE1_S2*%
X102080000Y-71258000D03*
%TO.P,MC1,5,GND_5*%
%TO.N,/RE1_C*%
X102080000Y-73798000D03*
%TO.P,MC1,6,D2_6*%
%TO.N,/ROW0*%
X102080000Y-76338000D03*
%TO.P,MC1,7,D3_7*%
%TO.N,/ROW1*%
X102080000Y-78878000D03*
%TO.P,MC1,8,D4_8*%
%TO.N,/COL0*%
X102080000Y-81418000D03*
%TO.P,MC1,9,D5_9*%
%TO.N,/COL1*%
X102080000Y-83958000D03*
%TO.P,MC1,10,D6_10*%
%TO.N,/COL2*%
X102080000Y-86498000D03*
%TO.P,MC1,11,D7_11*%
%TO.N,/CS*%
X102080000Y-89038000D03*
%TO.P,MC1,12,D8_12*%
%TO.N,/RES*%
X102080000Y-91578000D03*
%TO.P,MC1,13,D9_13*%
%TO.N,/DC*%
X102080000Y-94118000D03*
X117320000Y-63638000D03*
%TO.N,/MOSI*%
X117320000Y-91578000D03*
%TO.N,N/C*%
X117320000Y-94118000D03*
%TO.P,MC1,14,D-_14*%
%TO.N,unconnected-(MC1-D--Pad14)*%
X117320000Y-66178000D03*
X117320000Y-89038000D03*
%TO.P,MC1,15,RAW_15*%
%TO.N,/SW_GND*%
X117320000Y-68718000D03*
%TO.N,unconnected-(MC1-RAW-Pad15)*%
X117320000Y-86498000D03*
%TO.P,MC1,16,GND_16*%
%TO.N,N/C*%
X117320000Y-71258000D03*
%TO.N,/RE1_B*%
X117320000Y-83958000D03*
%TO.P,MC1,17,RESET_17*%
%TO.N,/VCC *%
X117320000Y-73798000D03*
%TO.P,MC1,18,3.3v_18*%
%TO.N,/SW1*%
X117320000Y-76338000D03*
%TO.P,MC1,19,A3/29_19*%
%TO.N,/SW2*%
X117320000Y-78878000D03*
%TO.P,MC1,20,A2/28_20*%
%TO.N,/RE1_A*%
X117320000Y-81418000D03*
%TD*%
D15*
%TO.P,D3,1,K_1*%
%TO.N,/COL0*%
X124625000Y-115680000D03*
%TO.P,D3,2,A_2*%
X127925000Y-115680000D03*
%TD*%
D12*
%TO.P,SW1,1,1_1*%
%TO.N,/SW_GND*%
X185850000Y-67688000D03*
X198350000Y-67688000D03*
%TO.P,SW1,2,2_2*%
%TO.N,/SW1*%
X185850000Y-72688000D03*
X198350000Y-72688000D03*
%TD*%
D15*
%TO.P,D2,1,K_1*%
%TO.N,/ROW1*%
X124625000Y-113140000D03*
%TO.P,D2,2,A_2*%
X127925000Y-113140000D03*
%TD*%
D18*
%TO.P,RE1,A,A_A*%
%TO.N,/RE1_A*%
X101300000Y-107338000D03*
D19*
%TO.P,RE1,B,B_B*%
%TO.N,/RE1_B*%
X101300000Y-112338000D03*
%TO.P,RE1,C,C_C*%
%TO.N,/RE1_C*%
X101300000Y-109838000D03*
D20*
%TO.P,RE1,MP*%
%TO.N,N/C*%
X108800000Y-104238000D03*
X108800000Y-115438000D03*
D19*
%TO.P,RE1,S1,S1_S1*%
%TO.N,/RE1_S1*%
X115800000Y-112338000D03*
%TO.P,RE1,S2,S2_S2*%
%TO.N,/RE1_S2*%
X115800000Y-107338000D03*
%TD*%
D15*
%TO.P,D5,1,K_1*%
%TO.N,/COL2*%
X124625000Y-120760000D03*
%TO.P,D5,2,A_2*%
X127925000Y-120760000D03*
%TD*%
%TO.P,D4,1,K_1*%
%TO.N,/COL1*%
X124625000Y-118220000D03*
%TO.P,D4,2,A_2*%
X127925000Y-118220000D03*
%TD*%
D21*
%TO.N,/COL0*%
X151325000Y-108740000D03*
X151325000Y-127790000D03*
%TO.N,/ROW0*%
X122600000Y-110600000D03*
X137475000Y-98700000D03*
X156525000Y-111280000D03*
X137475000Y-111280000D03*
X156525000Y-98700000D03*
X175575000Y-98700000D03*
X156525000Y-98700000D03*
X175575000Y-111280000D03*
%TO.N,/ROW1*%
X137475000Y-130330000D03*
X175575000Y-117750000D03*
X156525000Y-130330000D03*
X137475000Y-117750000D03*
X156525000Y-117750000D03*
X122550000Y-113200000D03*
X175575000Y-130330000D03*
%TO.N,/COL1*%
X170375000Y-127790000D03*
X170375000Y-108740000D03*
%TO.N,/COL2*%
X189425000Y-127790000D03*
X189425000Y-108740000D03*
%TD*%
%TO.N,/SW_GND*%
D22*
X125318000Y-68718000D02*
X127850000Y-71250000D01*
X179700000Y-80200000D02*
X143250000Y-80200000D01*
X143250000Y-80200000D02*
X140850000Y-77800000D01*
X128250000Y-71050000D02*
X125550000Y-68350000D01*
X127850000Y-71250000D02*
X127850000Y-85300000D01*
X140850000Y-77800000D02*
X130300000Y-77800000D01*
X130300000Y-77800000D02*
X128250000Y-75750000D01*
X117688000Y-68350000D02*
X117320000Y-68718000D01*
X128250000Y-75750000D02*
X128250000Y-71050000D01*
X181850000Y-70338000D02*
X184500000Y-67688000D01*
X117320000Y-68718000D02*
X125318000Y-68718000D01*
X181850000Y-80038000D02*
X181850000Y-70338000D01*
X129203000Y-86653000D02*
X132875000Y-86653000D01*
X181850000Y-78050000D02*
X179700000Y-80200000D01*
X127850000Y-85300000D02*
X129203000Y-86653000D01*
X125550000Y-68350000D02*
X117688000Y-68350000D01*
X184550000Y-82738000D02*
X181850000Y-80038000D01*
%TO.N,/VCC *%
X127400000Y-77338000D02*
X123860000Y-73798000D01*
X132875000Y-89193000D02*
X129005000Y-89193000D01*
X127400000Y-87588000D02*
X127400000Y-77338000D01*
X123860000Y-73798000D02*
X117320000Y-73798000D01*
X129005000Y-89193000D02*
X127400000Y-87588000D01*
%TO.N,/CS*%
X102068000Y-89050000D02*
X100450000Y-89050000D01*
X101402000Y-61798000D02*
X127910000Y-61798000D01*
X100450000Y-89050000D02*
X99900000Y-88500000D01*
X128650000Y-62538000D02*
X128650000Y-72218000D01*
X99900000Y-63300000D02*
X101402000Y-61798000D01*
X127910000Y-61798000D02*
X128650000Y-62538000D01*
X99900000Y-88500000D02*
X99900000Y-63300000D01*
X102080000Y-89038000D02*
X102068000Y-89050000D01*
X128650000Y-72218000D02*
X132925000Y-76493000D01*
%TO.N,/RES*%
X128100000Y-61400000D02*
X129050000Y-62350000D01*
X128075686Y-61398000D02*
X128077685Y-61400000D01*
X100278000Y-91578000D02*
X99500000Y-90800000D01*
X128077685Y-61400000D02*
X128100000Y-61400000D01*
X99500000Y-90800000D02*
X99500000Y-63134314D01*
X101236315Y-61398000D02*
X128075686Y-61398000D01*
X99500000Y-63134314D02*
X101236315Y-61398000D01*
X129050000Y-62350000D02*
X129050000Y-70078000D01*
X102080000Y-91578000D02*
X102070000Y-91588000D01*
X102080000Y-91578000D02*
X100278000Y-91578000D01*
X129050000Y-70078000D02*
X132925000Y-73953000D01*
%TO.N,/DC*%
X101034315Y-61000000D02*
X101068628Y-61000000D01*
X128241372Y-60998000D02*
X128243371Y-61000000D01*
X128243371Y-61000000D02*
X128300000Y-61000000D01*
X99050000Y-63000000D02*
X99100000Y-62950000D01*
X101068628Y-61000000D02*
X101070629Y-60997999D01*
X99100000Y-62934314D02*
X101034315Y-61000000D01*
X100310000Y-94118000D02*
X99050000Y-92858000D01*
X129500000Y-62200000D02*
X129500000Y-67988000D01*
X101070629Y-60997999D02*
X128241372Y-60998000D01*
X99100000Y-62950000D02*
X99100000Y-62934314D01*
X128300000Y-61000000D02*
X129500000Y-62200000D01*
X99050000Y-92858000D02*
X99050000Y-63000000D01*
X102080000Y-94118000D02*
X100310000Y-94118000D01*
X129500000Y-67988000D02*
X132925000Y-71413000D01*
%TO.N,/COL0*%
X120200000Y-117550000D02*
X120200000Y-116500000D01*
X151325000Y-103660000D02*
X151325000Y-122710000D01*
X151325000Y-122710000D02*
X151325000Y-127790000D01*
X97650000Y-100922314D02*
X97650000Y-115388000D01*
X105000000Y-98450000D02*
X100122314Y-98450000D01*
X135250000Y-117550000D02*
X133380000Y-115680000D01*
X148785000Y-101120000D02*
X151325000Y-103660000D01*
X148785000Y-120170000D02*
X151325000Y-122710000D01*
X100122314Y-98450000D02*
X97650000Y-100922314D01*
X151325000Y-108740000D02*
X148785000Y-111280000D01*
X120200000Y-116500000D02*
X121020000Y-115680000D01*
X97650000Y-115388000D02*
X100412000Y-118150000D01*
X121020000Y-115680000D02*
X124625000Y-115680000D01*
X133380000Y-115680000D02*
X127925000Y-115680000D01*
X148785000Y-130330000D02*
X146305000Y-130330000D01*
X148785000Y-111280000D02*
X146305000Y-111280000D01*
X152900000Y-132950000D02*
X151450000Y-134400000D01*
X151450000Y-134400000D02*
X136650000Y-134400000D01*
X106300000Y-82238000D02*
X106300000Y-97150000D01*
X146305000Y-101120000D02*
X148785000Y-101120000D01*
X106300000Y-97150000D02*
X105000000Y-98450000D01*
X151325000Y-103660000D02*
X151325000Y-108740000D01*
X135250000Y-133000000D02*
X135250000Y-117550000D01*
X151325000Y-122710000D02*
X152900000Y-124285000D01*
X105480000Y-81418000D02*
X106300000Y-82238000D01*
X151325000Y-127790000D02*
X148785000Y-130330000D01*
X119600000Y-118150000D02*
X120200000Y-117550000D01*
X136650000Y-134400000D02*
X135250000Y-133000000D01*
X102080000Y-81418000D02*
X105480000Y-81418000D01*
X152900000Y-124285000D02*
X152900000Y-132950000D01*
X100412000Y-118150000D02*
X119600000Y-118150000D01*
X146305000Y-120170000D02*
X148785000Y-120170000D01*
%TO.N,/ROW0*%
X178055000Y-108740000D02*
X175575000Y-111220000D01*
X136300000Y-98700000D02*
X135450000Y-99550000D01*
X156525000Y-111220000D02*
X156525000Y-111280000D01*
X156525000Y-101120000D02*
X156525000Y-101180000D01*
X134350000Y-110600000D02*
X127925000Y-110600000D01*
X139955000Y-108740000D02*
X137475000Y-111220000D01*
X135450000Y-109500000D02*
X134350000Y-110600000D01*
X175575000Y-101120000D02*
X175575000Y-98700000D01*
X159005000Y-108740000D02*
X156525000Y-111220000D01*
X159005000Y-103660000D02*
X159005000Y-108740000D01*
X156525000Y-101120000D02*
X156525000Y-98700000D01*
X137475000Y-111220000D02*
X137475000Y-111280000D01*
X178055000Y-103660000D02*
X178055000Y-108740000D01*
X175575000Y-101120000D02*
X175575000Y-101180000D01*
X137475000Y-101120000D02*
X137475000Y-101180000D01*
X139955000Y-103660000D02*
X139955000Y-108740000D01*
X137475000Y-98700000D02*
X136300000Y-98700000D01*
X137475000Y-101180000D02*
X139955000Y-103660000D01*
X175575000Y-101180000D02*
X178055000Y-103660000D01*
X135450000Y-99550000D02*
X135450000Y-109500000D01*
X156525000Y-101180000D02*
X159005000Y-103660000D01*
X137475000Y-101120000D02*
X137475000Y-98700000D01*
X175575000Y-111220000D02*
X175575000Y-111280000D01*
X122600000Y-110600000D02*
X124625000Y-110600000D01*
%TO.N,/ROW1*%
X137475000Y-120230000D02*
X139955000Y-122710000D01*
X156525000Y-120170000D02*
X156525000Y-120230000D01*
X139955000Y-127790000D02*
X137475000Y-130270000D01*
X132865000Y-113140000D02*
X137475000Y-117750000D01*
X156525000Y-120230000D02*
X159005000Y-122710000D01*
X156525000Y-130270000D02*
X156525000Y-130330000D01*
X175575000Y-120170000D02*
X175575000Y-120230000D01*
X137475000Y-130270000D02*
X137475000Y-130330000D01*
X159005000Y-122710000D02*
X159005000Y-127790000D01*
X139955000Y-122710000D02*
X139955000Y-127790000D01*
X178055000Y-127790000D02*
X175575000Y-130270000D01*
X122550000Y-113200000D02*
X122610000Y-113140000D01*
X137475000Y-120170000D02*
X137475000Y-120230000D01*
X156525000Y-120170000D02*
X156525000Y-117750000D01*
X137475000Y-120170000D02*
X137475000Y-117750000D01*
X175575000Y-120170000D02*
X175575000Y-117750000D01*
X122610000Y-113140000D02*
X124625000Y-113140000D01*
X175575000Y-120230000D02*
X178055000Y-122710000D01*
X159005000Y-127790000D02*
X156525000Y-130270000D01*
X178055000Y-122710000D02*
X178055000Y-127790000D01*
X175575000Y-130270000D02*
X175575000Y-130330000D01*
X127925000Y-113140000D02*
X132865000Y-113140000D01*
%TO.N,/COL1*%
X167835000Y-130330000D02*
X165355000Y-130330000D01*
X165355000Y-101120000D02*
X167835000Y-101120000D01*
X105020000Y-83958000D02*
X105900000Y-84838000D01*
X170375000Y-122725000D02*
X171950000Y-124300000D01*
X134850000Y-119650000D02*
X133420000Y-118220000D01*
X133420000Y-118220000D02*
X127925000Y-118220000D01*
X167835000Y-120170000D02*
X170375000Y-122710000D01*
X97250000Y-115553686D02*
X100246314Y-118550000D01*
X167835000Y-101120000D02*
X170375000Y-103660000D01*
X165355000Y-120170000D02*
X167835000Y-120170000D01*
X170100000Y-134800000D02*
X136484314Y-134800000D01*
X170375000Y-122710000D02*
X170375000Y-127790000D01*
X170375000Y-122710000D02*
X170375000Y-122725000D01*
X119800000Y-118550000D02*
X120130000Y-118220000D01*
X136484314Y-134800000D02*
X134850000Y-133165685D01*
X97250000Y-100756630D02*
X97250000Y-115553686D01*
X171950000Y-124300000D02*
X171950000Y-132950000D01*
X170375000Y-127790000D02*
X167835000Y-130330000D01*
X100246314Y-118550000D02*
X119800000Y-118550000D01*
X167835000Y-111280000D02*
X165355000Y-111280000D01*
X170375000Y-108740000D02*
X167835000Y-111280000D01*
X99956630Y-98050000D02*
X97250000Y-100756630D01*
X171950000Y-132950000D02*
X170100000Y-134800000D01*
X104800000Y-98050000D02*
X99956630Y-98050000D01*
X102080000Y-83958000D02*
X105020000Y-83958000D01*
X134850000Y-133165685D02*
X134850000Y-119650000D01*
X105900000Y-96950000D02*
X104800000Y-98050000D01*
X120130000Y-118220000D02*
X124625000Y-118220000D01*
X170375000Y-103660000D02*
X170375000Y-108740000D01*
X105900000Y-84838000D02*
X105900000Y-96950000D01*
%TO.N,/COL2*%
X189425000Y-103660000D02*
X189425000Y-108740000D01*
X186885000Y-120170000D02*
X189425000Y-122710000D01*
X120100000Y-118950000D02*
X120550000Y-119400000D01*
X186885000Y-111280000D02*
X184405000Y-111280000D01*
X189450000Y-135200000D02*
X190950000Y-133700000D01*
X120550000Y-119400000D02*
X120550000Y-120250000D01*
X186885000Y-101120000D02*
X189425000Y-103660000D01*
X186885000Y-130330000D02*
X184405000Y-130330000D01*
X134450000Y-133331371D02*
X136318628Y-135200000D01*
X184405000Y-101120000D02*
X186885000Y-101120000D01*
X190950000Y-133700000D02*
X190950000Y-124235000D01*
X120550000Y-120250000D02*
X121060000Y-120760000D01*
X189425000Y-127790000D02*
X186885000Y-130330000D01*
X105500000Y-87338000D02*
X105500000Y-96750000D01*
X127925000Y-120760000D02*
X132860000Y-120760000D01*
X96850000Y-115719370D02*
X100080630Y-118950000D01*
X100080630Y-118950000D02*
X120100000Y-118950000D01*
X134450000Y-122350000D02*
X134450000Y-133331371D01*
X105500000Y-96750000D02*
X104600000Y-97650000D01*
X121060000Y-120760000D02*
X124625000Y-120760000D01*
X190950000Y-124235000D02*
X189425000Y-122710000D01*
X104660000Y-86498000D02*
X105500000Y-87338000D01*
X184405000Y-120170000D02*
X186885000Y-120170000D01*
X132860000Y-120760000D02*
X134450000Y-122350000D01*
X102080000Y-86498000D02*
X104660000Y-86498000D01*
X99750000Y-97650000D02*
X96850000Y-100550000D01*
X104600000Y-97650000D02*
X99750000Y-97650000D01*
X136318628Y-135200000D02*
X189450000Y-135200000D01*
X189425000Y-108740000D02*
X186885000Y-111280000D01*
X96850000Y-100550000D02*
X96850000Y-115719370D01*
X189425000Y-122710000D02*
X189425000Y-127790000D01*
%TO.N,/RE1_A*%
X104650000Y-100384314D02*
X106184314Y-98850000D01*
X104650000Y-106300000D02*
X104650000Y-100384314D01*
X112550000Y-82888000D02*
X112550000Y-97972314D01*
X103612000Y-107338000D02*
X104650000Y-106300000D01*
X117320000Y-81418000D02*
X114020000Y-81418000D01*
X106184314Y-98850000D02*
X111672314Y-98850000D01*
X114020000Y-81418000D02*
X112550000Y-82888000D01*
X101300000Y-107338000D02*
X103612000Y-107338000D01*
X112550000Y-97972314D02*
X111672314Y-98850000D01*
%TO.N,/RE1_B*%
X106350000Y-99250000D02*
X105050000Y-100550000D01*
X112950000Y-85438000D02*
X112950000Y-98138000D01*
X105050000Y-100550000D02*
X105050000Y-111138000D01*
X103850000Y-112338000D02*
X101300000Y-112338000D01*
X111837999Y-99250000D02*
X106350000Y-99250000D01*
X117320000Y-83958000D02*
X114430000Y-83958000D01*
X105050000Y-111138000D02*
X103850000Y-112338000D01*
X112950000Y-98138000D02*
X111837999Y-99250000D01*
X114430000Y-83958000D02*
X112950000Y-85438000D01*
%TD*%
M02*
