M48
; DRILL file KiCad 10.0.3 date 2026-08-03T18:54:47
; FORMAT={-:-/ absolute / metric / decimal}
; #@! TF.CreationDate,2026-08-03T18:54:47-07:00
; #@! TF.GenerationSoftware,Kicad,Pcbnew,10.0.3
; #@! TF.FileFunction,NonPlated,1,2,NPTH
FMAT,2
METRIC
; #@! TA.AperFunction,NonPlated,NPTH,ComponentDrill
T1C1.702
; #@! TA.AperFunction,NonPlated,NPTH,ComponentDrill
T2C2.700
; #@! TA.AperFunction,NonPlated,NPTH,ComponentDrill
T3C3.000
; #@! TA.AperFunction,NonPlated,NPTH,ComponentDrill
T4C3.988
%
G90
G05
T1
X138.685Y-106.2
X138.685Y-125.25
X148.845Y-106.2
X148.845Y-125.25
X157.735Y-106.2
X157.735Y-125.25
X167.895Y-106.2
X167.895Y-125.25
X176.785Y-106.2
X176.785Y-125.25
X186.945Y-106.2
X186.945Y-125.25
T2
X97.3Y-60.35
X97.3Y-131.9
X200.55Y-131.9
X200.85Y-60.05
T3
X141.225Y-101.12
X141.225Y-111.28
X141.225Y-120.17
X141.225Y-130.33
X147.575Y-103.66
X147.575Y-108.74
X147.575Y-122.71
X147.575Y-127.79
X160.275Y-101.12
X160.275Y-111.28
X160.275Y-120.17
X160.275Y-130.33
X166.625Y-103.66
X166.625Y-108.74
X166.625Y-122.71
X166.625Y-127.79
X179.325Y-101.12
X179.325Y-111.28
X179.325Y-120.17
X179.325Y-130.33
X185.675Y-103.66
X185.675Y-108.74
X185.675Y-122.71
X185.675Y-127.79
T4
X143.765Y-106.2
X143.765Y-125.25
X162.815Y-106.2
X162.815Y-125.25
X181.865Y-106.2
X181.865Y-125.25
M30
