M48
; DRILL file KiCad 10.0.3 date 2026-08-03T18:54:47
; FORMAT={-:-/ absolute / metric / decimal}
; #@! TF.CreationDate,2026-08-03T18:54:47-07:00
; #@! TF.GenerationSoftware,Kicad,Pcbnew,10.0.3
; #@! TF.FileFunction,Plated,1,2,PTH
FMAT,2
METRIC
; #@! TA.AperFunction,Plated,PTH,ViaDrill
T1C0.300
; #@! TA.AperFunction,Plated,PTH,ComponentDrill
T2C0.900
; #@! TA.AperFunction,Plated,PTH,ComponentDrill
T3C1.000
; #@! TA.AperFunction,Plated,PTH,ComponentDrill
T4C1.092
; #@! TA.AperFunction,Plated,PTH,ComponentDrill
T5C1.300
; #@! TA.AperFunction,Plated,PTH,ComponentDrill
T6C1.499
; #@! TA.AperFunction,Plated,PTH,ComponentDrill
T7C1.500
; #@! TA.AperFunction,Plated,PTH,ComponentDrill
T8C2.000
%
G90
G05
T1
X122.55Y-113.2
X122.6Y-110.6
X137.475Y-98.7
X137.475Y-111.28
X137.475Y-117.75
X137.475Y-130.33
X151.325Y-108.74
X151.325Y-127.79
X156.525Y-98.7
X156.525Y-98.7
X156.525Y-111.28
X156.525Y-117.75
X156.525Y-130.33
X170.375Y-108.74
X170.375Y-127.79
X175.575Y-98.7
X175.575Y-111.28
X175.575Y-117.75
X175.575Y-130.33
X189.425Y-108.74
X189.425Y-127.79
T2
X132.875Y-66.333
X132.875Y-68.873
X132.875Y-71.413
X132.875Y-73.953
X132.875Y-76.493
X132.875Y-79.033
X132.875Y-81.573
X132.875Y-84.113
X132.875Y-86.653
X132.875Y-89.193
T3
X101.3Y-107.338
X101.3Y-109.838
X101.3Y-112.338
X115.8Y-107.338
X115.8Y-112.338
T4
X102.08Y-63.638
X102.08Y-66.178
X102.08Y-68.718
X102.08Y-71.258
X102.08Y-73.798
X102.08Y-76.338
X102.08Y-78.878
X102.08Y-81.418
X102.08Y-83.958
X102.08Y-86.498
X102.08Y-89.038
X102.08Y-91.578
X102.08Y-94.118
X117.32Y-63.638
X117.32Y-66.178
X117.32Y-68.718
X117.32Y-71.258
X117.32Y-73.798
X117.32Y-76.338
X117.32Y-78.878
X117.32Y-81.418
X117.32Y-83.958
X117.32Y-86.498
X117.32Y-89.038
X117.32Y-91.578
X117.32Y-94.118
T5
X185.85Y-67.688
X185.85Y-72.688
X185.85Y-82.738
X185.85Y-87.738
X198.35Y-67.688
X198.35Y-72.688
X198.35Y-82.738
X198.35Y-87.738
T6
X139.955Y-103.66
X139.955Y-108.74
X139.955Y-122.71
X139.955Y-127.79
X146.305Y-101.12
X146.305Y-111.28
X146.305Y-120.17
X146.305Y-130.33
X159.005Y-103.66
X159.005Y-108.74
X159.005Y-122.71
X159.005Y-127.79
X165.355Y-101.12
X165.355Y-111.28
X165.355Y-120.17
X165.355Y-130.33
X178.055Y-103.66
X178.055Y-108.74
X178.055Y-122.71
X178.055Y-127.79
X184.405Y-101.12
X184.405Y-111.28
X184.405Y-120.17
X184.405Y-130.33
T8
X134.105Y-63.243
X134.105Y-92.243
X179.105Y-63.243
X179.105Y-92.243
T7
G00X108.15Y-104.238
M15
G01X109.45Y-104.238
M16
G05
G00X108.15Y-115.438
M15
G01X109.45Y-115.438
M16
G05
M30
